# xmcd CD database file
#
# Track frame offsets:
#	150
#	31832
#	52777
#	72590
#	95975
#	132052
#	170465
#	189992
#
# Disc length: 2780 seconds
#
# Revision: 2
# Processed by: cddbd v1.5.1PL2 Copyright (c) Steve Scherf et al.
# Submitted via: CDex 1.50
#
DISCID=670ada08
DTITLE=Midnight Star - No Parking On The Dance Floor
DYEAR=1983
DGENRE=Funk
TTITLE0=Electricity
TTITLE1=Night Rider
TTITLE2=Feels So Good
TTITLE3=Wet My Whistle
TTITLE4=No Parking (On The Dance Floor)
TTITLE5=Freak-A-Zoid
TTITLE6=Slow Jam
TTITLE7=Playmates
EXTD=YEAR: 1983
EXTT0=
EXTT1=
EXTT2=
EXTT3=
EXTT4=
EXTT5=
EXTT6=
EXTT7=
PLAYORDER=
